inDegrees=no
num_controls=7
num_derivatives=13
num_iterations=154
num_multipliers=7
num_parameters=0
num_slacks=7
num_states=26
objective=0.543583
objective_accelerations=0.060910
objective_balance=0.003268
objective_effort=0.047362
objective_height=0.422279
objective_ligament=0.009765
solver_duration=1659.846341
status=Solve_Succeeded
success=true
DataType=double
version=3
OpenSimVersion=4.5
endheader
time	/jointset/ground_pelvis/pelvis_tilt/value	/jointset/ground_pelvis/pelvis_tx/value	/jointset/ground_pelvis/pelvis_ty/value	/jointset/hip_r/hip_flexion_r/value	/jointset/hip_r/hip_adduction_r/value	/jointset/hip_r/hip_rotation_r/value	/jointset/back/lumbar_extension/value	/jointset/patellofemoral_r/patellar_flexion_r/value	/jointset/knee_r/knee_flexion_r/value	/jointset/knee_r/knee_adduction_r/value	/jointset/knee_r/knee_rotation_r/value	/jointset/ankle_r/ankle_angle_r/value	/jointset/subtalar_r/subtalar_angle_r/value	/jointset/ground_pelvis/pelvis_tilt/speed	/jointset/ground_pelvis/pelvis_tx/speed	/jointset/ground_pelvis/pelvis_ty/speed	/jointset/hip_r/hip_flexion_r/speed	/jointset/hip_r/hip_adduction_r/speed	/jointset/hip_r/hip_rotation_r/speed	/jointset/back/lumbar_extension/speed	/jointset/patellofemoral_r/patellar_flexion_r/speed	/jointset/knee_r/knee_flexion_r/speed	/jointset/knee_r/knee_adduction_r/speed	/jointset/knee_r/knee_rotation_r/speed	/jointset/ankle_r/ankle_angle_r/speed	/jointset/subtalar_r/subtalar_angle_r/speed	/forceset/tau_hip_flexion_r	/forceset/tau_hip_adduction_r	/forceset/tau_hip_rotation_r	/forceset/tau_knee_flexion_r	/forceset/tau_ankle_angle_r	/forceset/tau_subtalar_angle_r	/forceset/tau_lumbar_extension	lambda_cid13_p0	lambda_cid14_p0	lambda_cid14_p1	lambda_cid14_p2	lambda_cid14_p3	lambda_cid14_p4	lambda_cid14_p5	/jointset/ground_pelvis/pelvis_tilt/accel	/jointset/ground_pelvis/pelvis_tx/accel	/jointset/ground_pelvis/pelvis_ty/accel	/jointset/hip_r/hip_flexion_r/accel	/jointset/hip_r/hip_adduction_r/accel	/jointset/hip_r/hip_rotation_r/accel	/jointset/back/lumbar_extension/accel	/jointset/patellofemoral_r/patellar_flexion_r/accel	/jointset/knee_r/knee_flexion_r/accel	/jointset/knee_r/knee_adduction_r/accel	/jointset/knee_r/knee_rotation_r/accel	/jointset/ankle_r/ankle_angle_r/accel	/jointset/subtalar_r/subtalar_angle_r/accel	gamma_cid13_p0	gamma_cid14_p0	gamma_cid14_p1	gamma_cid14_p2	gamma_cid14_p3	gamma_cid14_p4	gamma_cid14_p5
1	-0.3330251632394645	-0.0163702539566615	0.6157342376981456	1.607077072219666	-0.2447822259359428	0.06948567793009386	-0.4363261957319454	1.510138252839672	1.51013825283968	0.02903076552749125	0.17452928561101	0.4363242882469766	0.08606257164842812	-0.002369638013261327	0.002306702918933409	0.01639978055958181	-0.04066673504516764	-0.0009455566496002993	-0.01458056460009832	-0.0002220731567739162	-0.04831379360035183	-0.04831379360035201	-0.0008128003700289016	6.434110793978564e-05	-0.007325226125646889	-0.003914409965296271	-0.3123407874004482	0.01021624654812668	0.01763845615742004	-0.5324936152277734	0.01169424738563676	-0.002647446657774381	0.3202551596644247	-0.04263597737809938	-47.20680511217397	-10.4885645800991	3.357995022930855	20.75747969867369	-820.2806894114522	60.44200179086798	1.266088900896733	0.005823674311805131	2.073656305550414	-6.080487915493784	-0.1156263839309127	-1.500073452506574	-0.01967512175353483	-5.852003898982185	-5.852003898982291	0.1840998354681317	0.01387522387240801	-1.313165570877602	-0.6351298840281058	1.198112392968688e-09	-5.056768549700203e-10	1.279496673751594e-08	9.632257732506429e-09	4.369622505280775e-10	-3.569932160811156e-09	1.763807205670448e-08
1.01	-0.3329860708866322	-0.01634688317812267	0.6160017885541487	1.606367099374945	-0.2447972359883602	0.06926572560747243	-0.4363286307914452	1.509362685534249	1.509362685534254	0.02903233455934142	0.1745300371380333	0.4361853996547591	0.08599205420640178	0.0101959838948813	0.002371383538363719	0.03710892566106419	-0.1013342706544338	-0.002051710951484104	-0.02940405736246969	-0.000255830098976421	-0.1068052242455282	-0.1068052242455294	0.001127508519616545	8.110020584943347e-05	-0.02045871342290353	-0.01018162685124522	-0.312399185840089	0.01027373966966242	0.01765186206687021	-0.5321556563341509	0.01158017028851189	-0.00263291359442608	0.3203329227663549	-0.04264945374440737	-47.23521426087186	-10.48306288558309	3.352361348813137	20.73330480710877	-820.2044249486217	60.40904458376627	1.252980326537044	0.007379421578786339	2.0693225566761	-6.060851817801482	-0.1073952671343409	-1.472611425683743	0.006140316261937635	-5.848546565424795	-5.848546565424888	0.1991334625803811	-0.005147526901999266	-1.314374707996959	-0.6213929833318175	2.011514331530339e-09	-6.76112826309942e-11	2.867404626750131e-08	1.915248257232697e-08	-2.206441538178603e-09	-6.514158076721748e-09	3.728117602478157e-08
1.02	-0.3328210860165659	-0.0163227477602255	0.6164763866500123	1.605050258087295	-0.2448231646465602	0.06889771350971008	-0.4363311301609984	1.508002037138746	1.508002037138752	0.0290533340894614	0.174530811500106	0.4359149893097949	0.08585908951702528	0.02280886543358374	0.002459630790600755	0.05780922853170143	-0.1620404236300384	-0.003129277806057268	-0.04419251962809484	-0.0002349351725550223	-0.1653300116162822	-0.1653300116162839	0.003073299283967753	6.890811767128226e-05	-0.03362957667405073	-0.0164038594353367	-0.3124575842797489	0.01033123279119533	0.0176652679763214	-0.5318176974405289	0.01146609319138878	-0.002618380531082007	0.3204106858682667	-0.04267097653435836	-47.27250809368519	-10.47676867428505	3.343919184359216	20.74103917871359	-820.2645056067606	60.37655725938377	1.275540827008686	0.01053700087315682	2.071887859381387	-6.088211388761462	-0.1099088944687836	-1.49306735315733	-0.008744748028588375	-5.85867524409774	-5.858675244097704	0.1851962104092834	0.008084986654844653	-1.320640761655701	-0.6261330236566042	2.72885840937942e-09	-3.360019588801441e-10	4.504517138945266e-08	2.971741384780622e-08	-3.344254948063411e-09	-8.868143256979234e-09	5.627911674384917e-08
1.03	-0.3325300448006273	-0.01629746529318669	0.6171578404076439	1.603126501345342	-0.2448597172954534	0.06838204691588837	-0.4363321928484884	1.506056145217159	1.506056145217163	0.02909381314121945	0.1745313495720882	0.4355128416091408	0.08566421880599141	0.03537584756545091	0.00261551845132	0.07846972721313222	-0.2226831516175622	-0.004175686052772706	-0.05893020213305955	0.0001277861579986343	-0.2238370038611355	-0.2238370038611371	0.005022301462640465	3.710950850100483e-05	-0.04679033916537715	-0.02255382018825026	-0.3126303198656201	0.01035615004399798	0.01770147531025517	-0.5312088330152963	0.01167709305223781	-0.002619856306825623	0.3207382634830858	-0.0426920210517979	-47.18711106455472	-10.45126563997235	3.327069837118495	20.45111060923533	-820.2023787567401	60.32721248971479	1.243747741403049	0.02091212366365725	2.06135924785244	-6.048137360752508	-0.1011647973914256	-1.462530916148683	0.07458884771394698	-5.845006582057389	-5.845006582057406	0.1997250200375901	-0.009039572679043362	-1.312353109455298	-0.606943538414641	3.445222304976332e-09	-6.116013723597898e-10	6.142131738479141e-08	4.029300539303709e-08	-4.466705190817375e-09	-1.12161055725872e-08	7.527047416445748e-08
